<svg style="display:none"><defs><svg id="op3-icons-circle-remove-2" xmlns="http://www.w3.org/2000/svg" viewBox="0 0 32 32"><path fill="currentColor" d="M16 0C7.2 0 0 7.2 0 16s7.2 16 16 16 16-7.2 16-16S24.8 0 16 0zm-6 9c.25 0 .5.1.7.3l5.3 5.3 5.3-5.3c.4-.4 1-.4 1.4 0 .4.4.4 1 0 1.4L17.4 16l5.3 5.3c.4.4.4 1 0 1.4-.2.2-.4.3-.7.3s-.5-.1-.7-.3L16 17.4l-5.3 5.3c-.2.2-.4.3-.7.3s-.5-.1-.7-.3c-.4-.4-.4-1 0-1.4l5.3-5.3-5.3-5.3c-.4-.4-.4-1 0-1.4.2-.2.45-.3.7-.3z"/></svg><svg id="op3-icons-email-83-1" xmlns="http://www.w3.org/2000/svg" viewBox="0 0 32 32"><path fill="currentColor" d="M0 4v24h32V4H0zm2 2h28v3.4l-14 7.467L2 9.4V6zm0 5.666l14 7.467 14-7.467V26H2V11.666z"/></svg><svg id="op3-icons-link-71-1" xmlns="http://www.w3.org/2000/svg" viewBox="0 0 32 32"><path fill="currentColor" d="M7 9c-3.845 0-7 3.155-7 7s3.155 7 7 7h5c3.845 0 7-3.155 7-7v-1h-2v1c0 2.755-2.245 5-5 5H7c-2.755 0-5-2.245-5-5s2.245-5 5-5h5V9H7zm13 0c-3.845 0-7 3.155-7 7v1h2v-1c0-2.755 2.245-5 5-5h5c2.755 0 5 2.245 5 5s-2.245 5-5 5h-5v2h5c3.845 0 7-3.155 7-7s-3.155-7-7-7h-5z"/></svg><svg id="op3-icons-menu-34-1" xmlns="http://www.w3.org/2000/svg" viewBox="0 0 32 32"><path fill="currentColor" d="M1 6v2h30V6H1zm0 9v2h30v-2H1zm0 9v2h30v-2H1z"/></svg><svg id="op3-icons-multiple-19-1" xmlns="http://www.w3.org/2000/svg" viewBox="0 0 32 32"><path fill="currentColor" d="M10.5 3C6.922 3 4 5.922 4 9.5c0 1.79.695 3.594 1.83 5.014C6.965 15.934 8.601 17 10.5 17s3.535-1.067 4.67-2.486S17 11.289 17 9.5C17 5.922 14.078 3 10.5 3zm13 1C20.474 4 18 6.474 18 9.5c0 1.513.577 3.053 1.523 4.29.946 1.236 2.33 2.21 3.977 2.21s3.03-.975 3.977-2.21C28.423 12.552 29 11.012 29 9.5 29 6.474 26.526 4 23.5 4zm-13 1C12.998 5 15 7.002 15 9.5c0 1.249-.537 2.695-1.393 3.766S11.64 15 10.5 15c-1.14 0-2.252-.663-3.107-1.734C6.537 12.195 6 10.749 6 9.5 6 7.002 8.002 5 10.5 5zm13 1C25.444 6 27 7.556 27 9.5c0 .972-.43 2.182-1.113 3.074C25.204 13.467 24.338 14 23.5 14s-1.704-.533-2.387-1.426C20.431 11.682 20 10.472 20 9.5 20 7.556 21.556 6 23.5 6zm0 12c-2.55 0-4.606.573-6 1.129a3.95 3.95 0 00-1.223.787C14.733 19.399 12.805 19 10.5 19c-3.391 0-5.99.86-7.705 1.695A4.992 4.992 0 000 25.185V29h21v-3.815c0-1.775-.947-3.41-2.469-4.3A14.158 14.158 0 0123.5 20c2.25 0 4.054.506 5.26.986A1.98 1.98 0 0130 22.838V24h-6v2h8v-3.162a3.993 3.993 0 00-2.5-3.71 16.24 16.24 0 00-6-1.128zm-13 3c3.055 0 5.34.768 6.828 1.492h.002A2.983 2.983 0 0119 25.186V27H2v-1.814c0-1.15.643-2.194 1.67-2.694h.002C5.159 21.768 7.445 21 10.5 21z"/></svg><svg id="op3-icons-single-01-1" xmlns="http://www.w3.org/2000/svg" viewBox="0 0 32 32"><path fill="currentColor" d="M16 0c-4.406 0-8 3.594-8 8v2c0 4.406 3.594 8 8 8s8-3.594 8-8V8c0-4.406-3.594-8-8-8zm0 2c3.326 0 6 2.674 6 6v2c0 3.326-2.674 6-6 6s-6-2.674-6-6V8c0-3.326 2.674-6 6-6zm0 18c-5.332 0-9.288 1.011-11.711 1.887a4.998 4.998 0 00-3.29 4.7V32h30v-5.412a4.998 4.998 0 00-3.288-4.701C25.288 21.01 21.332 20 16 20zm0 2c5.08 0 8.8.961 11.031 1.768A2.98 2.98 0 0129 26.588V30H3v-3.412c0-1.27.78-2.39 1.969-2.82C7.2 22.96 10.92 22 15.999 22z"/></svg><svg id="op3-icons-small-down" xmlns="http://www.w3.org/2000/svg" viewBox="0 0 32 32"><path fill="currentColor" d="M10 11.586L8.586 13 16 20.414 23.414 13 22 11.586l-6 6-6-6z"/></svg><svg id="op3-icons-small-right" xmlns="http://www.w3.org/2000/svg" viewBox="0 0 32 32"><path fill="currentColor" d="M13 8.586L11.586 10l6 6-6 6L13 23.414 20.414 16 13 8.586z"/></svg></defs></svg>