<svg style="display:none"><defs><svg id="op3-icons-link-71-1" xmlns="http://www.w3.org/2000/svg" viewBox="0 0 32 32"><path fill="currentColor" d="M7 9c-3.845 0-7 3.155-7 7s3.155 7 7 7h5c3.845 0 7-3.155 7-7v-1h-2v1c0 2.755-2.245 5-5 5H7c-2.755 0-5-2.245-5-5s2.245-5 5-5h5V9H7zm13 0c-3.845 0-7 3.155-7 7v1h2v-1c0-2.755 2.245-5 5-5h5c2.755 0 5 2.245 5 5s-2.245 5-5 5h-5v2h5c3.845 0 7-3.155 7-7s-3.155-7-7-7h-5z"/></svg><svg id="op3-icons-menu-34-2" xmlns="http://www.w3.org/2000/svg" viewBox="0 0 32 32"><path fill="currentColor" d="M2 6c-.6 0-1 .4-1 1s.4 1 1 1h28c.6 0 1-.4 1-1s-.4-1-1-1H2zm0 9c-.6 0-1 .4-1 1s.4 1 1 1h28c.6 0 1-.4 1-1s-.4-1-1-1H2zm0 9c-.6 0-1 .4-1 1s.4 1 1 1h28c.6 0 1-.4 1-1s-.4-1-1-1H2z"/></svg><svg id="op3-icons-simple-remove-2" xmlns="http://www.w3.org/2000/svg" viewBox="0 0 32 32"><path fill="currentColor" d="M5 4c-.25 0-.5.1-.7.3-.4.4-.4 1 0 1.4L14.6 16 4.3 26.301c-.4.4-.4.999 0 1.399.2.2.4.3.7.3s.5-.1.7-.3L16 17.4l10.301 10.3c.2.2.5.3.7.3s.499-.1.699-.3c.4-.4.4-.999 0-1.399l-10.3-10.3L27.7 5.698c.4-.4.4-.998 0-1.398-.4-.4-.999-.4-1.399 0l-10.3 10.3L5.698 4.3A.98.98 0 005 4z"/></svg><svg id="op3-icons-small-down" xmlns="http://www.w3.org/2000/svg" viewBox="0 0 32 32"><path fill="currentColor" d="M10 11.586L8.586 13 16 20.414 23.414 13 22 11.586l-6 6-6-6z"/></svg><svg id="op3-icons-small-right" xmlns="http://www.w3.org/2000/svg" viewBox="0 0 32 32"><path fill="currentColor" d="M13 8.586L11.586 10l6 6-6 6L13 23.414 20.414 16 13 8.586z"/></svg></defs></svg>