<svg style="display:none"><defs><svg id="op3-icons-animation-alt" xmlns="http://www.w3.org/2000/svg" viewBox="0 0 24 24"><path fill="currentColor" d="M19 4c-2.76 0-5 2.24-5 5s2.24 5 5 5 5-2.24 5-5-2.24-5-5-5zm-17.496.137L.496 5.863c2.282 1.331 3.63 3.534 4.428 6.006C5.767 14.48 6 17.391 6 20h2c0-4.192 2.27-7.165 4.842-8.055l-.654-1.89c-1.791.62-3.512 2.022-4.682 4.049-.738-4.043-2.441-7.89-6.002-9.967zM19 6c3.898.1 3.898 5.9 0 6-3.898-.1-3.898-5.9 0-6z"/></svg><svg id="op3-icons-button-circle-play-2" xmlns="http://www.w3.org/2000/svg" viewBox="0 0 32 32"><path fill="currentColor" d="M16 0C7.178 0 0 7.178 0 16s7.178 16 16 16 16-7.178 16-16S24.822 0 16 0zm-3.967 8c.176.006.35.059.504.156l11 7a1.001 1.001 0 010 1.688l-11 7a1.01 1.01 0 01-1.017.033A1.002 1.002 0 0111 23V9a1.002 1.002 0 011.033-1z"/></svg><svg id="op3-icons-cart-simple-1" xmlns="http://www.w3.org/2000/svg" viewBox="0 0 32 32"><path fill="currentColor" d="M1 0v2h3.139l3 20h21.736l2.267-17H6.612l-.75-5H1zm5.912 7h21.945l-1.732 13H8.86L6.91 7zM10 24c-2.197 0-4 1.803-4 4s1.803 4 4 4 4-1.803 4-4-1.803-4-4-4zm17 0c-2.197 0-4 1.803-4 4s1.803 4 4 4 4-1.803 4-4-1.803-4-4-4zm-17 2c1.116 0 2 .884 2 2s-.884 2-2 2-2-.884-2-2 .884-2 2-2zm17 0c1.116 0 2 .884 2 2s-.884 2-2 2-2-.884-2-2 .884-2 2-2z"/></svg><svg id="op3-icons-check-simple-2" xmlns="http://www.w3.org/2000/svg" viewBox="0 0 32 32"><path fill="currentColor" d="M26 4c-.25 0-.5.1-.7.3L12 17.6l-5.301-5.3c-.4-.4-.998-.4-1.398 0l-4 4c-.4.4-.4.998 0 1.398l10 10c.2.2.499.301.699.301s.499-.1.699-.3l18-18c.4-.4.4-1 0-1.399l-4-4c-.2-.2-.45-.3-.7-.3z"/></svg><svg id="op3-icons-circle-remove-2" xmlns="http://www.w3.org/2000/svg" viewBox="0 0 32 32"><path fill="currentColor" d="M16 0C7.2 0 0 7.2 0 16s7.2 16 16 16 16-7.2 16-16S24.8 0 16 0zm-6 9c.25 0 .5.1.7.3l5.3 5.3 5.3-5.3c.4-.4 1-.4 1.4 0 .4.4.4 1 0 1.4L17.4 16l5.3 5.3c.4.4.4 1 0 1.4-.2.2-.4.3-.7.3s-.5-.1-.7-.3L16 17.4l-5.3 5.3c-.2.2-.4.3-.7.3s-.5-.1-.7-.3c-.4-.4-.4-1 0-1.4l5.3-5.3-5.3-5.3c-.4-.4-.4-1 0-1.4.2-.2.45-.3.7-.3z"/></svg><svg id="op3-icons-cloud-25-1" xmlns="http://www.w3.org/2000/svg" viewBox="0 0 32 32"><path fill="currentColor" d="M16 5c-4.751 0-8.735 3.077-10.311 7.309-3.211.81-5.69 3.698-5.69 7.191 0 3.91 3.014 7.152 6.913 7.496l.043.004h19.098l.054-.006C29.39 26.642 32 23.906 32 20.5c0-3.152-2.27-5.646-5.207-6.291C25.918 8.969 21.447 5 16 5zm0 2c4.7 0 8.553 3.502 9.004 8.098l.08.81.809.086C28.209 16.242 30 18.106 30 20.5c0 2.387-1.781 4.243-4.088 4.5H7.074C4.18 24.737 2 22.385 2 19.5c0-2.7 2.055-4.996 4.564-5.414l.604-.1.185-.584C8.526 9.704 11.944 7 16 7z"/></svg><svg id="op3-icons-email-83-1" xmlns="http://www.w3.org/2000/svg" viewBox="0 0 32 32"><path fill="currentColor" d="M0 4v24h32V4H0zm2 2h28v3.4l-14 7.467L2 9.4V6zm0 5.666l14 7.467 14-7.467V26H2V11.666z"/></svg><svg id="op3-icons-gps-2" xmlns="http://www.w3.org/2000/svg" viewBox="0 0 32 32"><path fill="currentColor" d="M2.018 1a1 1 0 00-.977 1.283l8 27a1 1 0 001.867.137l5.846-12.666 12.666-5.846c.378-.175.607-.565.578-.98a1.004 1.004 0 00-.715-.887l-27-8A.996.996 0 002.018 1z"/></svg><svg id="op3-icons-humidity-52-1" xmlns="http://www.w3.org/2000/svg" viewBox="0 0 32 32"><path fill="currentColor" d="M10.5 1C5.265 1 1 5.265 1 10.5S5.265 20 10.5 20s9.5-4.265 9.5-9.5S15.735 1 10.5 1zm0 2c4.154 0 7.5 3.346 7.5 7.5S14.654 18 10.5 18A7.485 7.485 0 013 10.5C3 6.346 6.346 3 10.5 3zM27 6c-2.197 0-4 1.803-4 4s1.803 4 4 4 4-1.803 4-4-1.803-4-4-4zm0 2c1.116 0 2 .884 2 2s-.884 2-2 2-2-.884-2-2 .884-2 2-2zm-3 9c-3.854 0-7 3.146-7 7s3.146 7 7 7 7-3.146 7-7-3.146-7-7-7zm0 2c2.773 0 5 2.227 5 5s-2.227 5-5 5-5-2.227-5-5 2.227-5 5-5z"/></svg><svg id="op3-icons-humidity-52-2" xmlns="http://www.w3.org/2000/svg" viewBox="0 0 32 32"><path fill="currentColor" d="M10.5 1C5.3 1 1 5.3 1 10.5S5.3 20 10.5 20s9.5-4.3 9.5-9.5S15.7 1 10.5 1zM27 6c-2.2 0-4 1.8-4 4s1.8 4 4 4 4-1.8 4-4-1.8-4-4-4zm-3 11c-3.9 0-7 3.1-7 7s3.1 7 7 7 7-3.1 7-7-3.1-7-7-7z"/></svg><svg id="op3-icons-infinite-2" xmlns="http://www.w3.org/2000/svg" viewBox="0 0 32 32"><path fill="currentColor" d="M7 9c-3.859 0-7 3.141-7 7s3.141 7 7 7c3.602 0 6.373-2.687 9-5.521C18.627 20.314 21.398 23 25 23c3.859 0 7-3.141 7-7s-3.141-7-7-7c-3.602 0-6.373 2.687-9 5.521C13.373 11.686 10.602 9 7 9zm0 2c2.822 0 5.192 2.346 7.643 5-2.451 2.654-4.821 5-7.643 5-2.757 0-5-2.243-5-5s2.243-5 5-5zm18 0c2.757 0 5 2.243 5 5s-2.243 5-5 5c-2.823 0-5.193-2.346-7.643-5 2.451-2.654 4.821-5 7.643-5z"/></svg><svg id="op3-icons-laptop-3" xmlns="http://www.w3.org/2000/svg" viewBox="0 0 32 32"><path fill="currentColor" d="M6 2C4.355 2 3 3.355 3 5v15.814l-2.45 6.47-.01.042c-.173.604-.102 1.239.222 1.761.323.523.955.913 1.638.913h27.1c1.367 0 2.372-1.502 1.819-2.793l.021.05L29 20.822V5c0-1.646-1.354-3-3-3H6zm0 2h20c.555 0 1 .445 1 1v15H5V5c0-.555.445-1 1-1zm1 2v12h18V6H7zm2 2h14v8H9V8zM4.691 22H27.3l2.17 5.969.01.025c.004.008.003 0 .006.006H2.463c-.006-.02-.016-.05-.002-.113L4.691 22z"/></svg><svg id="op3-icons-link-71-1" xmlns="http://www.w3.org/2000/svg" viewBox="0 0 32 32"><path fill="currentColor" d="M7 9c-3.845 0-7 3.155-7 7s3.155 7 7 7h5c3.845 0 7-3.155 7-7v-1h-2v1c0 2.755-2.245 5-5 5H7c-2.755 0-5-2.245-5-5s2.245-5 5-5h5V9H7zm13 0c-3.845 0-7 3.155-7 7v1h2v-1c0-2.755 2.245-5 5-5h5c2.755 0 5 2.245 5 5s-2.245 5-5 5h-5v2h5c3.845 0 7-3.155 7-7s-3.155-7-7-7h-5z"/></svg><svg id="op3-icons-menu-34-2" xmlns="http://www.w3.org/2000/svg" viewBox="0 0 32 32"><path fill="currentColor" d="M2 6c-.6 0-1 .4-1 1s.4 1 1 1h28c.6 0 1-.4 1-1s-.4-1-1-1H2zm0 9c-.6 0-1 .4-1 1s.4 1 1 1h28c.6 0 1-.4 1-1s-.4-1-1-1H2zm0 9c-.6 0-1 .4-1 1s.4 1 1 1h28c.6 0 1-.4 1-1s-.4-1-1-1H2z"/></svg><svg id="op3-icons-multiple-19-1" xmlns="http://www.w3.org/2000/svg" viewBox="0 0 32 32"><path fill="currentColor" d="M10.5 3C6.922 3 4 5.922 4 9.5c0 1.79.695 3.594 1.83 5.014C6.965 15.934 8.601 17 10.5 17s3.535-1.067 4.67-2.486S17 11.289 17 9.5C17 5.922 14.078 3 10.5 3zm13 1C20.474 4 18 6.474 18 9.5c0 1.513.577 3.053 1.523 4.29.946 1.236 2.33 2.21 3.977 2.21s3.03-.975 3.977-2.21C28.423 12.552 29 11.012 29 9.5 29 6.474 26.526 4 23.5 4zm-13 1C12.998 5 15 7.002 15 9.5c0 1.249-.537 2.695-1.393 3.766S11.64 15 10.5 15c-1.14 0-2.252-.663-3.107-1.734C6.537 12.195 6 10.749 6 9.5 6 7.002 8.002 5 10.5 5zm13 1C25.444 6 27 7.556 27 9.5c0 .972-.43 2.182-1.113 3.074C25.204 13.467 24.338 14 23.5 14s-1.704-.533-2.387-1.426C20.431 11.682 20 10.472 20 9.5 20 7.556 21.556 6 23.5 6zm0 12c-2.55 0-4.606.573-6 1.129a3.95 3.95 0 00-1.223.787C14.733 19.399 12.805 19 10.5 19c-3.391 0-5.99.86-7.705 1.695A4.992 4.992 0 000 25.185V29h21v-3.815c0-1.775-.947-3.41-2.469-4.3A14.158 14.158 0 0123.5 20c2.25 0 4.054.506 5.26.986A1.98 1.98 0 0130 22.838V24h-6v2h8v-3.162a3.993 3.993 0 00-2.5-3.71 16.24 16.24 0 00-6-1.128zm-13 3c3.055 0 5.34.768 6.828 1.492h.002A2.983 2.983 0 0119 25.186V27H2v-1.814c0-1.15.643-2.194 1.67-2.694h.002C5.159 21.768 7.445 21 10.5 21z"/></svg><svg id="op3-icons-pen-01-2-2" xmlns="http://www.w3.org/2000/svg" viewBox="0 0 32 32"><path fill="currentColor" d="M25 1a.996.996 0 00-.707.293L21 4.586 27.414 11l3.293-3.293a.999.999 0 000-1.414l-5-5A.996.996 0 0025 1zm-5.414 5L4 21.586 10.414 28 26 12.414 19.586 6zM2.876 23.291L1.04 29.725a1.002 1.002 0 001.236 1.236l6.434-1.838-5.832-5.832z"/></svg><svg id="op3-icons-photo-editor-1" xmlns="http://www.w3.org/2000/svg" viewBox="0 0 32 32"><path fill="currentColor" d="M16 1C10.489 1 6 5.489 6 11c0 .277.02.549.043.82C2.493 13.358 0 16.894 0 21c0 5.511 4.489 10 10 10a9.93 9.93 0 006-2.021A9.93 9.93 0 0022 31c5.511 0 10-4.489 10-10 0-4.106-2.494-7.642-6.043-9.18.022-.271.043-.543.043-.82 0-5.511-4.49-10-10-10zm0 2c4.43 0 8 3.57 8 8 0 .067-.008.132-.01.2A9.93 9.93 0 0016 13.021a9.93 9.93 0 00-7.99-1.823C8.008 11.132 8 11.067 8 11c0-4.43 3.57-8 8-8zm-6 10c1.679 0 3.233.515 4.518 1.393a9.985 9.985 0 00-2.098 3.76 7.98 7.98 0 01-4.111-4.971A8.065 8.065 0 0110 13zm12 0c.581 0 1.146.065 1.691.182a7.98 7.98 0 01-4.11 4.97 9.984 9.984 0 00-2.099-3.76A7.975 7.975 0 0122 13zm-15.58.848a10.052 10.052 0 005.623 6.332A9.988 9.988 0 0012 21a9.94 9.94 0 002.518 6.607A7.975 7.975 0 0110 29c-4.43 0-8-3.57-8-8a7.978 7.978 0 014.42-7.152zm19.16 0A7.978 7.978 0 0130 21c0 4.43-3.57 8-8 8a7.975 7.975 0 01-4.518-1.393A9.944 9.944 0 0020 21c0-.277-.02-.549-.043-.82a10.052 10.052 0 005.623-6.332zM16 15.71a7.954 7.954 0 011.691 3.107c-.545.117-1.11.182-1.691.182s-1.146-.065-1.692-.182A7.954 7.954 0 0116 15.711zm-1.99 5.09a9.99 9.99 0 003.98 0c.002.067.01.132.01.199a7.97 7.97 0 01-2 5.29A7.964 7.964 0 0114 21c0-.067.008-.132.01-.2z"/></svg><svg id="op3-icons-play-circle-1" xmlns="http://www.w3.org/2000/svg" viewBox="0 0 20 20"><path fill="currentColor" d="M10 0C1.09 0-3.37 10.771 2.93 17.07S20 18.91 20 10c0-5.523-4.477-10-10-10zm-.29.984C14.418.866 19 4.487 19 10a9 9 0 01-9 9C1.981 19-2.033 9.306 3.637 3.637 5.408 1.865 7.572 1.038 9.71.985zM8.024 5.846A1.003 1.003 0 007 6.8v6.398c.007.174.059.343.15.49a.999.999 0 001.38.31l5.15-3.15c.13-.08.24-.19.32-.32a1 1 0 00-.36-1.34L8.53 6a.987.987 0 00-.507-.153z"/></svg><svg id="op3-icons-png-1" xmlns="http://www.w3.org/2000/svg" viewBox="0 0 32 32"><path fill="currentColor" d="M3 0v12H0v16h3v4h26v-4h3V12h-3V8.586L20.414 0H3zm2 2h14v8h8v2H5V2zm16 1.414L25.586 8H21V3.414zM2 14h28v12H2V14zm20.4 3.1c-.9 0-1.701.2-2.201.8s-.799 1.3-.799 2.2c0 1 .3 1.7.7 2.2s1.1.8 2 .8c.8 0 1.5-.1 2.2-.3v-3.1h-2.5v1h1v.9c-.2.1-.401.1-.601.1-.5 0-.8-.1-1-.4s-.299-.7-.299-1.2c0-.6.2-1 .4-1.3s.5-.4 1-.4.999.1 1.399.3l.5-1.2c-.2-.1-.499-.2-.799-.3s-.6-.1-1-.1zm-14.6.2V23h1.5v-1.9h.398c.7 0 1.202-.1 1.602-.5s.6-.9.6-1.5-.2-1-.5-1.3-.9-.5-1.6-.5h-2zm5.1 0V23h1.4v-2.6c0-.3-.102-.8-.102-1.4l2.102 4h2v-5.7h-1.4v2.6c0 .4.1.8.1 1.4l-2.1-4h-2zm-3.6 1.2h.5c.4 0 .6.2.6.6 0 .2-.002.4-.202.5-.2.1-.4.2-.6.2H9.3v-1.3zM5 28h22v2H5v-2z"/></svg><svg id="op3-icons-simple-remove-2" xmlns="http://www.w3.org/2000/svg" viewBox="0 0 32 32"><path fill="currentColor" d="M5 4c-.25 0-.5.1-.7.3-.4.4-.4 1 0 1.4L14.6 16 4.3 26.301c-.4.4-.4.999 0 1.399.2.2.4.3.7.3s.5-.1.7-.3L16 17.4l10.301 10.3c.2.2.5.3.7.3s.499-.1.699-.3c.4-.4.4-.999 0-1.399l-10.3-10.3L27.7 5.698c.4-.4.4-.998 0-1.398-.4-.4-.999-.4-1.399 0l-10.3 10.3L5.698 4.3A.98.98 0 005 4z"/></svg><svg id="op3-icons-single-01-1" xmlns="http://www.w3.org/2000/svg" viewBox="0 0 32 32"><path fill="currentColor" d="M16 0c-4.406 0-8 3.594-8 8v2c0 4.406 3.594 8 8 8s8-3.594 8-8V8c0-4.406-3.594-8-8-8zm0 2c3.326 0 6 2.674 6 6v2c0 3.326-2.674 6-6 6s-6-2.674-6-6V8c0-3.326 2.674-6 6-6zm0 18c-5.332 0-9.288 1.011-11.711 1.887a4.998 4.998 0 00-3.29 4.7V32h30v-5.412a4.998 4.998 0 00-3.288-4.701C25.288 21.01 21.332 20 16 20zm0 2c5.08 0 8.8.961 11.031 1.768A2.98 2.98 0 0129 26.588V30H3v-3.412c0-1.27.78-2.39 1.969-2.82C7.2 22.96 10.92 22 15.999 22z"/></svg><svg id="op3-icons-small-add-1" xmlns="http://www.w3.org/2000/svg" viewBox="0 0 32 32"><path fill="currentColor" d="M15 8v7H8v2h7v7h2v-7h7v-2h-7V8h-2z"/></svg><svg id="op3-icons-small-delete-1" xmlns="http://www.w3.org/2000/svg" viewBox="0 0 32 32"><path fill="currentColor" d="M8 15v2h16v-2H8z"/></svg><svg id="op3-icons-small-down" xmlns="http://www.w3.org/2000/svg" viewBox="0 0 32 32"><path fill="currentColor" d="M10 11.586L8.586 13 16 20.414 23.414 13 22 11.586l-6 6-6-6z"/></svg><svg id="op3-icons-small-right" xmlns="http://www.w3.org/2000/svg" viewBox="0 0 32 32"><path fill="currentColor" d="M13 8.586L11.586 10l6 6-6 6L13 23.414 20.414 16 13 8.586z"/></svg></defs></svg>